<svg width="235" height="40" viewBox="0 0 235 40" fill="none" xmlns="http://www.w3.org/2000/svg">
    <path d="M64.6955 20.173C63.7538 19.5965 62.5649 19.116 61.1289 18.7317L58.52 18.0334C57.306 17.6907 56.375 17.2913 55.7269 16.8354C55.0788 16.3795 54.7553 15.6967 54.7564 14.7871C54.7564 13.9169 55.1562 13.2192 55.9559 12.6939C56.7556 12.1686 57.8233 11.9054 59.159 11.9043C60.4327 11.9043 61.5298 12.1926 62.4501 12.7691C63.3705 13.3457 64.0111 14.2409 64.372 15.4549L67.133 14.4235C66.8209 13.3245 66.2604 12.3119 65.4947 11.4639C64.7366 10.6663 63.805 10.0542 62.7721 9.67496C61.6019 9.24461 60.3624 9.03342 59.1157 9.05197C57.5975 9.05197 56.2671 9.30501 55.1247 9.8111C54.0583 10.2562 53.1348 10.9859 52.455 11.9203C51.8129 12.8289 51.4764 13.9181 51.494 15.0305C51.4671 15.9493 51.6863 16.8587 52.1289 17.6643C52.5716 18.47 53.2216 19.1426 54.0116 19.6125C54.9804 20.2069 56.0317 20.6549 57.1314 20.9418L59.7419 21.6385C60.6488 21.8572 61.5326 22.1624 62.3813 22.5497C62.9514 22.7989 63.4554 23.1779 63.8531 23.6564C64.1669 24.0706 64.3327 24.5782 64.3239 25.0978C64.3239 26.0085 63.8787 26.7372 62.9883 27.2839C62.0978 27.8305 60.9041 28.1033 59.4072 28.1023C57.89 28.1023 56.6307 27.7232 55.6292 26.9652C54.6432 26.2273 53.9071 25.205 53.52 24.036L50.7974 25.1891C51.1606 26.327 51.766 27.3727 52.5719 28.2544C53.3887 29.1362 54.3952 29.8207 55.5155 30.2563C56.7587 30.7366 58.0826 30.9736 59.4152 30.9546C61.0744 30.9546 62.511 30.6967 63.725 30.1811C64.9389 29.6654 65.8748 28.9521 66.5325 28.0414C67.1979 27.1032 67.5433 25.9755 67.5174 24.8255C67.5346 23.8974 67.2928 22.9829 66.8191 22.1846C66.2837 21.3527 65.5552 20.6626 64.6955 20.173Z" fill="#00A443"/>
    <path d="M73.0511 18.9447C73.4657 18.5071 73.967 18.1607 74.5229 17.9277C75.0756 17.6958 75.6692 17.5771 76.2686 17.5785C77.1998 17.5613 78.1168 17.809 78.9127 18.2928C79.6814 18.769 80.2884 19.5831 80.7337 20.7352L83.2833 19.5212C82.9371 18.5004 82.3486 17.5788 81.5681 16.8354C80.8613 16.1773 80.0236 15.6757 79.1097 15.3636C78.1954 15.0584 77.2373 14.9048 76.2734 14.9088C75.2382 14.8977 74.2112 15.0937 73.2529 15.4853C72.3422 15.8628 71.517 16.4201 70.8266 17.1237C70.1169 17.8471 69.567 18.7113 69.2122 19.6605C68.8271 20.7045 68.6371 21.8103 68.6517 22.9229C68.6517 24.5009 68.9805 25.8921 69.6382 27.0965C70.2655 28.2653 71.2025 29.2388 72.3464 29.9104C73.5357 30.5969 74.8891 30.9479 76.2622 30.9258C77.2261 30.9305 78.1843 30.7769 79.0985 30.4709C80.0152 30.1579 80.8537 29.6509 81.5568 28.9847C82.3306 28.2415 82.9183 27.3262 83.2721 26.3133L80.7289 25.1058C80.2836 26.2397 79.6766 27.049 78.9079 27.5337C78.1166 28.0255 77.2001 28.2785 76.2686 28.2624C75.464 28.2693 74.6724 28.0597 73.9768 27.6554C73.2576 27.2279 72.6779 26.6009 72.308 25.8505C71.8937 25.0519 71.6866 24.0754 71.6866 22.9213C71.6722 22.1372 71.7952 21.3567 72.0501 20.6151C72.2635 19.9945 72.6045 19.4255 73.0511 18.9447Z" fill="#00A443"/>
    <path d="M95.8967 15.9097C94.6628 15.2269 93.2707 14.8817 91.8608 14.9088C90.8013 14.8987 89.7499 15.0945 88.765 15.4853C87.8311 15.8591 86.9847 16.4224 86.2794 17.1397C85.5649 17.8681 85.0073 18.7353 84.6411 19.6878C84.2477 20.7193 84.0521 21.8157 84.0645 22.9197C84.0645 24.4977 84.4035 25.8937 85.0815 27.1077C85.7318 28.2935 86.6981 29.2758 87.873 29.9456C88.9562 30.5313 90.1545 30.8727 91.3838 30.946C92.613 31.0194 93.8434 30.8227 94.9886 30.37C95.92 29.9895 96.7661 29.4271 97.4774 28.7156C98.1941 27.9944 98.7521 27.1315 99.1158 26.182C99.5111 25.1404 99.7067 24.0337 99.6923 22.9197C99.6923 21.3181 99.3539 19.9173 98.6769 18.7172C98.0264 17.5432 97.0643 16.5717 95.8967 15.9097ZM96.2907 25.165C96.0742 25.7885 95.7337 26.3616 95.2897 26.8498C94.8657 27.3039 94.3482 27.6607 93.773 27.8956C93.1661 28.1428 92.5161 28.2669 91.8608 28.2608C91.013 28.2709 90.1785 28.0494 89.4473 27.6202C88.7175 27.1829 88.1279 26.5461 87.7481 25.7848C87.3338 24.9862 87.1267 24.0301 87.1267 22.9165C87.1127 22.1545 87.2308 21.3959 87.4758 20.6743C87.6898 20.0577 88.0253 19.4903 88.4623 19.0055C88.88 18.5437 89.3992 18.1852 89.979 17.9581C90.5784 17.7232 91.217 17.6047 91.8608 17.609C92.728 17.5938 93.5829 17.8152 94.3336 18.2496C95.0606 18.6839 95.6497 19.3153 96.0328 20.0705C96.4481 20.8606 96.6553 21.8114 96.6542 22.9229C96.6652 23.6858 96.5421 24.4447 96.2907 25.165Z" fill="#00A443"/>
    <path d="M114.787 10.1442L111.784 11.9731V15.2195H105.498V10.1442L102.498 11.9731V15.2195H99.646V17.7082H102.498V25.8761C102.483 26.7354 102.665 27.5868 103.03 28.3649C103.366 29.0732 103.912 29.6609 104.593 30.0481C105.28 30.4442 106.129 30.6417 107.141 30.6407H109.053V28.0301H107.476C106.787 28.0301 106.286 27.8278 105.974 27.4232C105.661 27.0185 105.504 26.4313 105.503 25.6615V17.7002H111.784V25.8681C111.769 26.7274 111.951 27.5788 112.316 28.3569C112.651 29.0652 113.197 29.6529 113.879 30.0401C114.565 30.4362 115.415 30.6337 116.427 30.6326H118.339V28.0221H116.762C116.073 28.0221 115.572 27.8198 115.259 27.4152C114.947 27.0105 114.79 26.4233 114.789 25.6535V17.7002H118.339V15.2114H114.787V10.1442Z" fill="#00A443"/>
    <path d="M123.346 15.2115H120.372V30.6263H123.346V15.2115Z" fill="#00A443"/>
    <path d="M123.315 9.21847C122.913 8.86574 122.393 8.6766 121.858 8.68837C121.327 8.67493 120.812 8.86455 120.416 9.21847C120.218 9.40089 120.063 9.6245 119.961 9.87354C119.859 10.1226 119.812 10.391 119.825 10.6599C119.814 10.924 119.862 11.1873 119.964 11.4311C120.066 11.6749 120.22 11.8933 120.416 12.0708C120.811 12.4253 121.327 12.6155 121.858 12.6025C122.393 12.6138 122.913 12.4241 123.315 12.0708C123.514 11.8951 123.671 11.6772 123.775 11.4332C123.879 11.1891 123.927 10.9249 123.916 10.6599C123.929 10.3901 123.882 10.1208 123.778 9.87152C123.674 9.62223 123.516 9.39916 123.315 9.21847Z" fill="#00A443"/>
    <path d="M137.112 23.541C136.334 22.8043 135.135 22.2331 133.517 21.8274L132 21.4638C131.454 21.3192 130.917 21.145 130.391 20.9417C129.979 20.7905 129.599 20.564 129.269 20.2739C129.129 20.1425 129.018 19.9824 128.945 19.8044C128.872 19.6265 128.838 19.4348 128.845 19.2425C128.845 18.7151 129.112 18.2848 129.646 17.9517C130.18 17.6185 130.885 17.4536 131.763 17.4568C132.595 17.4425 133.416 17.6469 134.145 18.0494C134.843 18.4433 135.333 19.116 135.616 20.0673L138.105 19.1576C137.873 18.2815 137.424 17.478 136.8 16.821C136.183 16.1864 135.431 15.6987 134.599 15.394C133.691 15.0635 132.73 14.9007 131.763 14.9135C130.721 14.894 129.687 15.0847 128.72 15.4741C127.901 15.7938 127.182 16.3269 126.638 17.018C126.146 17.6674 125.884 18.4627 125.895 19.2777C125.882 19.8063 125.975 20.3322 126.167 20.8246C126.36 21.3171 126.648 21.7663 127.016 22.1461C127.764 22.9244 128.967 23.5165 130.628 23.9222L132.175 24.3162C133.267 24.5585 134.071 24.8367 134.587 25.1506C134.825 25.278 135.023 25.4686 135.16 25.7014C135.296 25.9343 135.366 26.2003 135.362 26.4702C135.362 27.0372 135.058 27.5075 134.45 27.8812C133.843 28.2549 133.004 28.4423 131.933 28.4433C131.332 28.4451 130.736 28.3421 130.171 28.139C129.617 27.945 129.114 27.6286 128.699 27.2134C128.27 26.7743 127.952 26.2381 127.774 25.6503L125.357 26.7073C125.651 27.5907 126.147 28.3934 126.805 29.0517C127.463 29.71 128.266 30.2058 129.149 30.4997C130.048 30.8082 130.992 30.9619 131.942 30.9545C133.236 30.9545 134.358 30.7576 135.306 30.3636C136.173 30.0322 136.934 29.4708 137.506 28.7396C138.017 28.0624 138.29 27.2352 138.281 26.387C138.281 25.2285 137.892 24.2799 137.112 23.541Z" fill="#00A443"/>
    <path d="M150.729 15.6375C149.829 15.1387 148.813 14.8873 147.785 14.9088C146.74 14.9069 145.715 15.1958 144.825 15.7432C144.144 16.1684 143.593 16.7736 143.233 17.492V9.38506H140.259V30.6279H143.233V21.4991C143.233 20.2659 143.592 19.3002 144.31 18.6019C145.027 17.9036 145.953 17.5545 147.087 17.5545C148.098 17.5545 148.917 17.8988 149.545 18.5875C150.173 19.2762 150.486 20.2066 150.485 21.379V30.6343H153.49V20.8873C153.516 19.7843 153.26 18.6928 152.746 17.7163C152.281 16.8483 151.582 16.1281 150.729 15.6375Z" fill="#00A443"/>
    <path d="M169.88 11.222C168.485 9.99844 166.563 9.38612 164.114 9.38506H156.286V30.6279H159.411V23.1006H164.145C165.763 23.1006 167.155 22.8273 168.318 22.2806C169.433 21.777 170.373 20.953 171.019 19.9136C171.659 18.8822 171.98 17.6687 171.98 16.2733C171.973 14.1293 171.273 12.4456 169.88 11.222ZM167.423 19.3082C166.569 19.9968 165.386 20.3412 163.873 20.3412H159.406V12.2086H163.868C165.384 12.2086 166.567 12.547 167.418 13.2239C168.269 13.9009 168.694 14.9178 168.692 16.2749C168.692 17.6095 168.267 18.6206 167.418 19.3082H167.423Z" fill="#00A443"/>
    <path d="M184.063 15.9097C182.829 15.2269 181.437 14.8817 180.027 14.9088C178.968 14.8986 177.916 15.0944 176.931 15.4853C175.996 15.8587 175.149 16.422 174.443 17.1397C173.728 17.8681 173.17 18.7353 172.804 19.6878C172.411 20.7193 172.215 21.8157 172.228 22.9197C172.228 24.4977 172.567 25.8937 173.245 27.1077C173.895 28.2935 174.861 29.2758 176.036 29.9456C177.119 30.5313 178.318 30.8727 179.547 30.946C180.776 31.0194 182.006 30.8227 183.152 30.37C184.083 29.9895 184.929 29.4271 185.64 28.7156C186.357 27.9944 186.915 27.1315 187.279 26.182C187.674 25.1404 187.87 24.0337 187.855 22.9197C187.855 21.3181 187.517 19.9173 186.84 18.7172C186.19 17.5436 185.229 16.5721 184.063 15.9097ZM184.457 25.165C184.24 25.7885 183.9 26.3616 183.456 26.8498C183.032 27.3043 182.514 27.6612 181.938 27.8956C181.331 28.1429 180.682 28.2671 180.027 28.2608C179.179 28.2711 178.345 28.0496 177.614 27.6202C176.884 27.1829 176.294 26.5461 175.914 25.7848C175.499 24.9862 175.292 24.0301 175.293 22.9165C175.279 22.1545 175.397 21.3959 175.642 20.6743C175.856 20.0577 176.192 19.4903 176.629 19.0055C177.046 18.5437 177.565 18.1852 178.145 17.9581C178.745 17.7232 179.383 17.6047 180.027 17.609C180.894 17.5939 181.749 17.8154 182.5 18.2496C183.227 18.6839 183.816 19.3153 184.199 20.0705C184.613 20.8606 184.82 21.8114 184.82 22.9229C184.83 23.6859 184.706 24.4449 184.454 25.165H184.457Z" fill="#00A443"/>
    <path d="M204.624 23.5042C204.483 23.9495 204.351 24.3893 204.23 24.8239C204.108 25.2584 203.977 25.7389 203.836 26.2653C203.471 25.1314 203.177 24.2207 202.955 23.5331L200.309 15.2115H197.729L195.127 23.5042C194.983 23.9708 194.847 24.4208 194.717 24.8543C194.584 25.2899 194.438 25.7704 194.276 26.2957C194.116 25.7704 193.972 25.2899 193.852 24.8543C193.732 24.4187 193.599 23.9703 193.456 23.5042L190.999 15.2195H187.843L192.729 30.6359H195.551L198.16 22.3511C198.383 21.6838 198.656 20.7838 198.98 19.6509C199.364 20.7838 199.657 21.6838 199.859 22.3511L202.47 30.6359H205.322L210.178 15.2195H207.082L204.624 23.5042Z" fill="#00A443"/>
    <path d="M221.254 15.8953C220.147 15.2283 218.874 14.8865 217.582 14.9088C216.558 14.8959 215.541 15.0865 214.592 15.4693C213.701 15.8388 212.899 16.3941 212.24 17.0981C211.56 17.8274 211.038 18.6902 210.708 19.6317C210.341 20.6902 210.162 21.8044 210.178 22.9245C210.178 24.526 210.501 25.9268 211.148 27.1269C211.762 28.2953 212.686 29.2722 213.818 29.9504C215.005 30.642 216.36 30.9933 217.734 30.9658C218.612 30.9674 219.486 30.8395 220.327 30.5862C221.172 30.3313 221.957 29.9086 222.634 29.3434C223.37 28.7186 223.982 27.962 224.439 27.1125L222.133 25.6855C221.847 26.2636 221.456 26.7834 220.98 27.2182C220.551 27.605 220.043 27.895 219.492 28.0686C218.922 28.2441 218.328 28.331 217.731 28.3265C216.911 28.3402 216.103 28.1304 215.394 27.7195C214.685 27.2903 214.12 26.659 213.773 25.9065C213.438 25.187 213.246 24.4092 213.208 23.6163H224.683C224.702 23.4757 224.712 23.3339 224.712 23.1919V22.7963C224.712 21.2183 224.404 19.8378 223.788 18.6548C223.213 17.5192 222.336 16.5643 221.254 15.8953ZM214.35 18.8389C214.711 18.3726 215.187 18.007 215.73 17.7771C216.307 17.5378 216.927 17.419 217.551 17.428C218.117 17.4132 218.68 17.5254 219.197 17.7562C219.714 17.9871 220.173 18.3308 220.54 18.7621C221.097 19.4027 221.455 20.283 221.613 21.403H213.296C213.341 21.1211 213.404 20.8423 213.485 20.5686C213.66 19.9423 213.954 19.3552 214.35 18.8389Z" fill="#00A443"/>
    <path d="M233.781 14.9087C232.916 14.8953 232.065 15.1383 231.337 15.607C230.62 16.0715 230.038 16.7793 229.593 17.7307V15.2114H226.619V30.6278H229.593V22.4039C229.593 21.0896 229.927 20.0379 230.594 19.2489C230.901 18.87 231.29 18.5664 231.732 18.3612C232.174 18.156 232.657 18.0548 233.144 18.0654H234.66V14.9087H233.781Z" fill="#00A443"/>
    <path d="M23.5171 23.0782C23.5135 25.5225 24.4767 27.8691 26.1965 29.606C29.5149 32.9244 34.02 32.918 36.8915 31.3581C40.4069 29.4507 48.3153 23.73 40.1042 7.62939e-06C40.1042 11.2012 23.5171 12.3399 23.5171 23.0782Z" fill="#FF9C1A"/>
    <path d="M31.0696 9.80622C30.5251 6.8706 29.6523 3.86452 28.347 7.62939e-06C28.347 11.2012 11.7583 12.3399 11.7583 23.0782C11.7546 25.5219 12.7164 27.8682 14.4345 29.606C17.7529 32.9244 22.2932 32.9148 25.1295 31.3581C18.5344 24.3258 20.8566 16.1851 31.0696 9.80622Z" fill="#0DA9FF"/>
    <path d="M19.3113 9.80621C18.7668 6.8706 17.8924 3.86451 16.5887 0C16.5887 11.2012 0 12.3398 0 23.0782C0 28.5858 4.46188 31.0106 4.46188 31.0106C3.76858 33.9554 3.62362 37.0027 4.03427 40L6.16272 39.6461C5.12172 36.0266 5.76073 32.0852 5.82639 31.6992C8.54901 32.7899 11.3565 32.4664 13.3712 31.3613C6.76649 24.3258 9.09833 16.1867 19.3113 9.80621Z" fill="#00A443"/>
</svg>
